<svg xmlns="http://www.w3.org/2000/svg" version="1.1" xmlns:xlink="http://www.w3.org/1999/xlink" xmlns:svgjs="http://svgjs.dev/svgjs" width="2000" height="474" viewBox="0 0 2000 474"><g transform="matrix(1,0,0,1,-1.2121212121212466,0.577797250967933)"><svg viewBox="0 0 396 94" data-background-color="#ffffff" preserveAspectRatio="xMidYMid meet" height="474" width="2000" xmlns="http://www.w3.org/2000/svg" xmlns:xlink="http://www.w3.org/1999/xlink"><g id="tight-bounds" transform="matrix(1,0,0,1,0.2400000000000091,-0.1145842649598876)"><svg viewBox="0 0 395.52 94.2291685299198" height="94.2291685299198" width="395.52"><g><svg viewBox="0 0 568.8717931740642 135.52871174887892" height="94.2291685299198" width="395.52"><g><rect width="8.843790948729685" height="117.68050224215246" x="418.6712852060986" y="8.924104753363231" fill="#336a86" opacity="1" stroke-width="0" stroke="transparent" fill-opacity="1" class="rect-r$-0" data-fill-palette-color="primary" rx="1%" id="r$-0" data-palette-color="#336a86"></rect></g><g transform="matrix(1,0,0,1,0,18.7308132735426)"><svg viewBox="0 0 395.52 98.06708520179372" height="98.06708520179372" width="395.52"><g id="textblocktransform"><svg viewBox="0 0 395.52 98.06708520179372" height="98.06708520179372" width="395.52" id="textblock"><g><svg viewBox="0 0 395.52 98.06708520179372" height="98.06708520179372" width="395.52"><g transform="matrix(1,0,0,1,0,0)"><svg width="395.52" viewBox="2.81 -32.4 130.65 32.4" height="98.06708520179372" data-palette-color="#336a86"><path d="M13.4 0L2.81 0 2.81-32.4 13.4-32.4 13.4 0ZM22.95-25.93L15.11-25.93 15.11-32.4 27.22-32.4 33.69-25.93 33.69-14.82 27.22-8.33 15.11-8.33 15.11-14.82 22.95-14.82 22.95-25.93ZM45.94 0L45.94-10.3 34.96-32.4 45.55-32.4 56.76-9.55 56.76 0 45.94 0ZM67.89-32.4L57.44-11.82 52.19-22.46 57.52-32.4 67.89-32.4ZM81.51-32.4L101.22 0 89.74 0 70.11-32.4 81.51-32.4ZM79.51 0L70.11 0 70.11-29.32 79.51-13.92 79.51 0ZM91.82-32.4L101.22-32.4 101.22-3.08 91.82-18.55 91.82-32.4ZM113.79 0L113.79-23.66 125.02-23.66 125.02 0 113.79 0ZM105.34-25.34L105.34-32.4 133.46-32.4 133.46-25.34 105.34-25.34Z" opacity="1" transform="matrix(1,0,0,1,0,0)" fill="#336a86" class="wordmark-text-0" data-fill-palette-color="primary" id="text-0"></path></svg></g></svg></g></svg></g></svg></g><g transform="matrix(1,0,0,1,450.66636136092694,0)"><svg viewBox="0 0 118.20543181313722 135.52871174887892" height="135.52871174887892" width="118.20543181313722"><g><svg xmlns="http://www.w3.org/2000/svg" xmlns:xlink="http://www.w3.org/1999/xlink" version="1.1" x="0" y="0" viewBox="6.391000000000002 0 87.218 100" enable-background="new 0 0 100 100" xml:space="preserve" height="135.52871174887892" width="118.20543181313722" class="icon-icon-0" data-fill-palette-color="accent" id="icon-0"><path fill="#283132" d="M77.806 12.728C67.152 12.728 56.381 8.48 50 0c-6.38 8.479-17.154 12.727-27.807 12.727-5.508 0-10.983-1.135-15.802-3.409 0.54 14.316 1.604 28.825 3.999 42.962 1.222 7.749 2.422 16.888 6.666 23.668 3.729 6.528 9.515 11.869 15.722 16.006 4.715 3.137 9.846 5.717 15.187 7.612 0.853 0.303 1.502 0.434 2.1 0.434 1.036 0 1.917-0.394 3.434-0.974 12.28-4.715 25.46-13.388 30.882-25.855 4.878-11.093 5.954-24.273 7.206-36.19 0.968-9.189 1.671-18.426 2.022-27.663C88.79 11.592 83.312 12.728 77.806 12.728zM81.641 35.937l-0.267 2.568c-0.396 3.824-0.797 7.694-1.326 11.496H50v39.658c-0.001 0-0.002 0.001-0.003 0.001-4.081-1.561-8.003-3.585-11.673-6.026-5.664-3.775-10.016-8.147-12.584-12.645l-0.1-0.175-0.107-0.171c-2.877-4.597-4.016-11.91-5.021-18.363l-0.244-1.557-0.009-0.056-0.01-0.056c-0.034-0.201-0.065-0.408-0.099-0.609H50V13.899l0 0c7.62 5.639 17.418 8.829 27.806 8.829 1.693 0 3.378-0.086 5.046-0.257C82.525 26.877 82.121 31.375 81.641 35.937z" data-fill-palette-color="accent"></path></svg></g></svg></g></svg></g><defs></defs></svg><rect width="395.52" height="94.2291685299198" fill="none" stroke="none" visibility="hidden"></rect></g></svg></g></svg>